<svg xmlns="http://www.w3.org/2000/svg" width="842" height="137" viewBox="0 0 842 137" fill="none">
  <path d="M66.2822 135.984C66.8534 135.805 69.122 136.114 70.0798 136.01C69.0726 137.744 64.2561 136.632 66.2822 135.984ZM153.725 10.0486C153.193 10.4929 152.645 10.9353 152.081 11.3759C153.549 11.5575 155.305 11.2599 156.666 11.38C156.987 11.3885 157.295 11.4067 157.589 11.4369C157.975 11.4787 157.065 12.7502 157.973 12.746C158.881 12.7426 158.596 11.1021 159.904 10.8473C161.394 10.5523 168.086 11.3919 170.263 11.3002C178.542 10.9007 186.22 9.84275 193.777 10.4116C185.991 11.7564 193.901 12.8772 196.046 12.3167C196.51 12.1874 196.41 9.11245 204.131 9.77776C209.026 10.1997 204.628 14.6588 212.696 12.3408C206.386 9.35596 212.543 9.48446 217.448 9.30894C218.219 9.2807 224.374 9.59934 227.59 9.47652C227.796 9.46916 227.991 9.4605 228.175 9.45035C229.319 9.38536 231.108 7.75427 232.599 7.7017C233.644 7.66654 234.457 8.54217 235.966 8.49341C243.108 8.27989 249.823 8.28591 256.654 8.69384C252.61 12.7675 259.74 10.5077 260.054 10.7145C261.647 11.8653 254.353 12.0597 257.224 12.8113C261.27 12.7508 265.272 12.7037 269.278 12.6659C266.012 12.0838 273.693 9.2805 275.053 10.6712C274.548 6.99072 293.049 14.3309 295.869 13.2005C296.462 12.9602 292.672 11.0397 301.553 12.129C302.517 12.2495 302.122 13.3414 302.631 13.2537C302.939 13.201 304.848 9.74987 306.752 11.7453C307.438 12.4733 302.853 14.6402 312.828 14.0122C308.973 10.3279 326.64 12.4896 329.802 13.4623C329.173 12.9656 328.528 12.4683 327.898 11.9713C331.077 13.3526 331.633 12.1522 332.366 12.2378C335.217 12.5788 339.154 13.8973 341.758 13.8397C344.356 13.7846 344.809 12.1826 346.964 12.2546C347.365 12.2676 347.821 12.3347 348.352 12.4743C347.896 12.1959 347.436 11.917 346.972 11.6376C346.615 11.4139 346.254 11.1898 345.888 10.9655C346.257 10.9899 346.621 11.0141 346.98 11.038C349.044 11.1713 351.057 11.2963 353.057 11.4126C347.533 14.2965 354.257 11.5673 354.687 11.501C355.38 11.3979 354.379 12.5956 355.542 12.4517C355.66 12.4271 355.508 11.2956 357.295 11.1726C361.037 10.9126 360.442 12.3317 362.003 12.3087C362.148 12.2993 361.628 11.2871 364.308 11.0199C372.71 10.1282 364.288 11.811 363.955 11.9467C363.523 12.1309 366.521 16.393 359.209 14.9116C361.654 15.3881 361.941 17.2693 362.209 17.3153C362.447 17.3566 366.704 17.0437 366.907 16.971C368.971 16.2953 367.117 15.0369 367.517 14.7989C367.847 14.6134 372.893 16.1795 373.91 12.257C376.38 15.7511 372.692 15.5669 368.662 16.1936C368.073 16.9435 372.551 17.555 372.757 17.5413C378.432 17.3521 375.159 14.5099 376.318 12.5879C376.93 11.5806 379.262 13.4918 377.066 10.9417C382.083 10.4451 379.115 12.1035 379.442 12.3173C379.96 12.6274 381.697 11.7833 381.924 11.8714C382.26 12.0031 381.169 12.9756 382.484 13.2286C382.712 13.2634 384.715 11.5799 381.967 10.9755C385.598 11.0027 385.246 9.67102 386.686 12.2928C388.994 7.02784 388.81 15.188 389.913 15.4054C392.902 15.9715 391.813 12.0192 391.948 11.8144C392.711 10.6753 399.824 11.1172 403.845 10.8864C404.268 10.8541 404.619 10.7998 404.867 10.7139C404.73 11.3451 404.371 11.7141 403.882 11.91C401.354 12.6342 396.821 11.2134 395.765 11.7196C391.051 13.8556 402.803 12.7854 399.421 16.6067C400.861 15.5686 402.368 14.5374 403.94 13.5197C403.977 13.4865 404.014 13.4533 404.051 13.4201C406.332 15.6768 403.248 16.8138 409.15 15.7363C410.034 13.6866 404.968 16.213 405.941 14.5868C406.513 13.6363 409.938 13.3029 409.985 12.8075C410.026 12.2154 406.955 13.0365 407.407 12.1082C408.379 10.1233 419.798 11.477 411.218 12.9331C413.621 12.7964 415.062 16.6372 417.101 15.3189C418.407 14.458 410.53 9.47323 421.979 9.86114C422.33 11.6911 417.448 10.6504 417.334 10.7932C417.169 11.0061 418.262 15.1166 418.425 15.3137C419.001 15.9799 430.575 13.0753 433.192 14.9682C432.045 12.6474 442.002 13.9038 443.003 13.0723C443.269 12.848 442.089 11.465 442.379 11.2853C444.188 10.2139 449.499 12.4001 451.859 12.2457C454.488 12.0784 454.035 10.8398 454.18 10.8292C455.333 10.7892 454.502 11.7361 455.204 11.6655C456.278 11.5685 463.52 10.9826 463.829 10.7549C463.927 10.6873 462.602 9.3741 464.119 8.92546C464.335 8.85989 464.401 10.0397 466.935 9.72274C467.679 9.63036 468.574 9.4709 469.648 9.22434C477.149 7.52563 464.096 7.67883 467.043 5.54679C472.313 7.5333 471.82 5.05618 473.176 5.118C473.646 5.14482 477.225 6.97849 480.733 6.58288C478.226 7.12242 475.678 7.69039 473.091 8.29583C475.719 8.41139 480.558 7.54983 482.607 7.84359C483.608 7.98409 482.932 9.8098 485.048 9.62273C485.484 9.57982 487.03 5.11901 481.528 7.45009C480.96 5.93938 483.732 6.7506 484.928 6.23822C485.106 6.15879 485.684 3.53056 487.344 5.04158C487.71 5.42887 484.251 13.1269 494.158 7.16702C494.475 6.97619 493.294 6.0862 493.603 5.87587C493.821 5.73166 496.408 5.9983 496.681 5.85391C496.964 5.69791 495.68 4.72142 496.015 4.50407C497.739 3.384 500.196 7.37546 496.583 7.21334C497.815 7.66639 499.036 8.12293 500.239 8.5823C498.84 5.5532 502.074 7.64385 503.663 7.49375C513.75 6.5387 506.903 4.77044 508.6 3.67466C511.25 1.91835 509.414 7.25833 513.286 5.53659C513.583 5.37303 509.025 3.31752 517.923 4.23216C516.661 4.37335 515.359 4.51124 514.02 4.64766C514.945 7.59844 518.735 4.25792 518.98 4.20114C522.162 3.63563 520.246 4.8273 524.488 3.03011C524.837 2.87326 525.649 3.50294 526.313 3.16027C526.373 3.14586 526.433 3.13043 526.492 3.1139C529.501 2.29967 528.557 2.09174 526.224 2.08686C524.918 1.92066 521.873 2.02759 521.668 1.30346C521.59 0.991635 524.165 0.751157 526.102 0.606756C530.803 0.236876 534.915 0.294446 535.181 0.417384C537.926 1.55819 526.775 1.2646 528.962 2.74971C529.324 2.97513 536.653 2.48515 542.418 2.52388C548.275 2.52524 552.587 2.61399 554.041 2.9557C557.333 3.77496 558.591 7.83867 558.724 3.30388C559.51 7.78037 560.349 4.7575 560.742 4.79571C562.221 4.95144 563.216 5.05409 564.047 5.11535C566.371 5.25681 567.461 5.19616 570.996 4.95119C572.134 4.87503 573.049 6.24207 573.459 6.02068C573.694 5.88685 573.279 4.43277 574.428 4.00639C576.027 3.41327 585.46 5.12178 586.148 5.94974C586.833 6.76694 582.151 6.19092 582.963 7.52785C586.354 7.74583 589.61 7.51568 593.002 7.76583C594.406 7.87392 593.655 8.76967 594.257 8.80817C594.538 8.827 599.389 8.18951 599.198 7.84439C598.76 7.01927 583.695 7.07829 587.698 5.59338C588.479 5.30377 591.127 7.50648 590.769 4.91611C596.472 5.34138 602.155 5.80663 607.681 6.27954C610.432 6.51473 613.151 6.75231 615.638 6.96736C616.872 7.07435 618.054 7.17489 618.941 7.25655C619.372 7.29743 619.737 7.33225 619.8 7.3629C619.824 7.37864 619.759 7.39263 619.475 7.41436C619.134 7.4423 618.655 7.45233 617.044 7.59842C619.42 7.48563 621.725 7.40494 623.979 7.34457C621.826 7.98594 619.547 8.40812 617.142 8.71989C618.809 8.60505 619.242 8.63043 619.556 8.62879C619.811 8.63397 619.842 8.6418 619.786 8.6437C619.657 8.64829 619.235 8.63274 618.722 8.59988C617.705 8.53499 616.377 8.40819 615.027 8.27081C612.293 7.99433 609.296 7.67289 606.393 7.62352C605.305 7.60125 601.641 7.20911 602.04 8.52916C605.415 8.82754 609.204 8.90015 612.768 9.02089C614.538 9.0803 616.26 9.15111 617.684 9.25535C618.391 9.3074 619.032 9.36733 619.446 9.43672C619.652 9.47157 619.8 9.50851 619.814 9.55015C619.814 9.59295 619.74 9.63507 619.166 9.70752C618.881 9.74629 619.978 10.8769 618.876 11.1055C618.582 11.1527 618.157 11.1852 617.365 11.2484C619.498 11.0277 623.833 9.2109 624.647 9.60608C624.81 9.70722 621.914 11.4529 622.9 12.3689C625.411 14.7204 625.61 9.12162 627.596 9.0687C629.202 9.00729 639.179 11.2267 641.389 9.44288C643.849 7.51871 634.277 8.69516 634.875 7.18995C641.462 5.38408 647.934 6.7492 653.515 6.32256C653.612 6.3136 652.708 5.18812 653.941 4.97193C656.074 4.59492 656.694 6.21633 657.711 6.43158C658.854 6.66201 662.465 6.22232 662.935 6.7896C663.002 6.86457 662.402 8.5424 662.29 8.59502C660.783 9.36162 660.059 7.26995 659.917 7.25089C659.356 7.20035 658.854 8.04098 658.331 8.01857C657.464 7.98066 656.96 7.25132 655.795 7.23822C654.991 7.22598 655.838 8.63499 655.055 8.60392C654.772 8.58768 651.49 5.42322 651.325 8.80166C651.045 9.59541 666.409 9.92357 669.822 9.47061C675.024 8.83268 677.901 8.58749 678.853 8.27096C676.102 8.1212 673.208 8.0106 669.635 8.11018C669.573 8.08576 669.504 8.06193 669.43 8.03859C669.504 8.06813 669.573 8.09245 669.636 8.11233C677.195 7.81446 682.767 5.23717 683.563 8.99892C695.164 8.47136 705.408 8.48289 714.557 8.27484C720.26 8.20511 727.176 7.59224 736.716 7.28917C740.621 7.48467 738.577 10.0702 744.957 9.22303C743.301 8.42305 741.605 7.6411 739.909 6.87732C741.971 7.15113 748.364 7.61397 753.284 8.00589C755.46 8.21541 757.469 8.279 758.15 8.08538C758.387 8.01862 758.682 5.70832 761.51 5.53723C764.044 5.38574 764.485 7.12492 765.865 7.47095C767.042 7.75671 768.389 7.3167 768.736 7.41655C769.007 7.49638 769.103 8.55871 769.767 8.75175C771.817 9.34971 770.188 6.34005 772.206 9.79902C771.708 9.92279 771.199 10.0467 770.694 10.171C773.197 10.6991 776.615 12.3143 772.906 13.0247C772.265 13.148 772.825 12.1293 772.35 12.1243C754.075 12.1167 768.514 14.2416 775.12 12.7595C776.77 14.2964 786.174 13.5876 786.485 13.9061C786.904 14.3523 785.281 15.5227 787.344 16.6313C787.783 16.8498 800.282 16.4348 795.724 18.2972C794.779 18.6765 788.83 18.0413 787.381 18.0636C790.714 21.3774 798.726 17.0463 799.634 17.2055C803.189 17.8471 792.649 19.7308 800.702 20.4193C806.877 20.9613 801.155 18.5698 803.568 17.7506C804.958 17.2885 811.81 19.9756 811.78 16.9027C814.165 16.6884 812.706 18.2468 812.993 18.3776C813.279 18.4929 818.037 17.8082 819.523 18.5354C819.702 18.6252 819.048 20.1898 819.231 20.3301C819.429 20.4653 820.92 20.4983 822.27 20.4833L821.908 20.4657C822.787 20.4355 823.524 20.3654 823.586 20.3078C823.682 20.2175 822.873 18.7891 823.234 18.4633C823.45 18.276 824.416 18.2956 825.207 18.2952C826.027 18.2966 826.555 18.2763 826.597 18.0763C826.673 17.7737 826.139 17.7268 825.336 17.5387C824.557 17.3522 823.688 17.0295 824.055 16.2601C824.962 16.4876 826.136 16.3471 826.675 15.9721C826.944 15.7862 827.031 15.5425 826.817 15.2842C826.616 15.0248 826.064 14.7625 825.47 14.5171C825.778 14.6578 826.607 14.6877 826.798 14.7248C827.036 14.7564 826.831 14.7465 826.702 14.6831C826.741 13.5442 827.209 12.946 826.306 12.9515C825.887 12.9545 825.148 13.1403 824.794 13.4159C824.431 13.693 824.53 14.0192 825.243 14.3822C823.384 13.6648 824.432 12.9877 823.326 12.2426C823.24 12.1671 822.779 12.1949 822.87 12.1113C822.96 11.9862 823.777 11.6963 824.05 11.389C824.072 11.3436 823.398 11.2449 823.039 11.0313C822.66 10.8215 822.527 10.5092 822.53 10.2711C820.734 9.66477 833.032 7.69943 833.189 8.11547C834.242 8.32909 833.04 8.7757 831.261 9.38306C829.488 9.98098 827.083 10.8232 826.833 11.3644C826.778 11.4489 828.756 11.6111 830.583 11.8885C832.419 12.1583 833.966 12.533 834.017 12.6109C834.279 13.488 832.763 13.7505 831.038 14.084C829.315 14.4112 827.521 14.8151 828.126 15.529C830.142 15.5273 832.084 15.6222 833.739 15.7941C832.4 16.2968 830.579 16.7594 828.532 17.2874C826.48 17.8123 824.525 18.369 824.219 18.5315C824.082 18.5923 824.457 18.5453 824.874 18.509C825.299 18.4701 825.746 18.443 826.07 18.4424C826.731 18.4407 826.972 18.5163 827.038 18.6174C827.146 18.8259 826.716 19.1441 826.511 19.6611C826.997 19.5538 827.32 19.4448 826.895 19.4364C826.686 19.434 826.237 19.4665 825.622 19.5651C825.033 19.656 824.273 19.8391 824.495 19.8439C825.039 19.8765 827.948 19.5954 829.653 19.954C831.443 20.285 832.448 21.069 832.606 22.3218C832.851 24.0396 828.82 25.7177 829.098 26.1518C830.02 27.5517 835.261 25.1083 835.324 25.232C835.482 25.315 835.559 25.4034 835.568 25.4957C835.568 25.4957 835.568 25.4958 835.568 25.4958C835.936 26.3057 827.954 28.1407 827.978 28.693C827.522 29.5554 831.276 32.022 831.411 32.7226C831.377 32.7964 830.015 33.2572 829.175 33.7963C828.332 34.3326 828.013 34.9036 828.667 35.3827C830.011 36.2916 834.702 35.5858 834.727 35.7526C835.687 36.2744 828.199 38.2376 828.845 38.6265C828.833 38.7417 829.451 39.0051 830.403 39.2297C831.339 39.4561 832.434 39.7054 832.514 39.8887C832.653 40.24 829.941 41.6303 829.691 42.9475C829.543 43.443 829.846 43.7895 830.21 44.0241C830.571 44.2592 831.01 44.3809 830.86 44.4854C830.795 44.5286 830.243 44.6671 829.737 44.7898C829.448 44.8591 829.37 44.8809 829.295 44.9022C829.222 44.9231 829.117 44.9465 828.965 44.9727C828.663 45.0253 828.254 45.0762 828.213 45.1326C828.007 45.3783 828.744 46.4306 828.661 46.7052C828.577 47.1068 827.47 46.748 827.613 47.1437C827.655 47.2492 828.28 47.787 828.943 48.4484C829.659 49.1026 830.062 49.9219 830.935 50.492C831.632 50.9472 832.229 51.3383 832.274 51.6208C832.357 52.1007 831.844 52.24 831.314 52.2971C830.695 52.3665 830.271 52.249 830.139 52.607C830.072 52.9444 830.197 53.8476 831.99 55.5132C832.217 55.7084 832.468 55.9143 832.745 56.1321C832.782 56.168 834.052 55.4127 834.11 55.4476C835.16 56.5142 831.29 59.1654 836.425 57.8986C834.62 58.5873 833.55 59.2245 832.866 59.6796C831.296 60.6884 832.141 61.0724 833.257 61.5413C834.222 61.9659 835.216 62.5096 834.927 63.6945C834.839 64.0434 834.478 64.3961 833.928 64.7364C833.273 65.1535 832.026 65.562 831.185 65.7839C830.33 66.0152 829.745 66.1338 829.738 66.1943C830.272 67.5762 831.866 66.3499 832.599 66.9194C832.912 67.3446 828.284 69.1645 829.399 70.0389C829.614 70.2224 830.469 70.2849 831.646 70.2138C832.805 70.1563 834.414 69.8628 834.981 69.7456C835.315 69.6813 835.515 69.6467 835.553 69.6598C837.14 70.2537 835.647 71.5751 836.078 72.1451C836.24 72.3328 836.874 72.3155 837.286 72.3064C837.71 72.2945 838.022 72.2702 838.05 72.305C838.081 72.4286 837.349 73.7885 836.054 74.8533C835.8 75.0812 835.488 75.2959 835.305 75.4444C834.849 75.7962 835.805 75.9706 836.328 76.1559C836.757 76.3064 837.081 76.4406 836.942 76.5646C836.812 76.6776 836.656 76.7753 836.476 76.8608C832.396 78.4215 826.159 76.0976 833.478 79.697C833.904 79.9025 836.655 79.3953 836.992 79.3146C837.085 79.2979 837.141 79.2907 837.152 79.2972C837.639 79.6397 837.565 79.9595 837.196 80.2871C836.573 80.9322 833.04 81.7355 832.574 82.4086C830.649 84.4341 840.195 82.2652 832.371 84.4581C834.253 84.7426 836.964 84.5541 838.072 84.4551C840.049 84.3015 839.924 84.2222 840.52 83.9316C840.221 84.0684 840.136 84.2226 839.879 84.4452C839.634 84.6649 839.067 84.9957 838.268 85.3897C837.634 85.7064 836.374 86.1396 835.418 86.4759C834.436 86.8203 833.644 87.1127 833.046 87.3812C831.841 87.9156 831.313 88.3739 831.236 88.7906C831.184 89.2015 831.589 89.5709 832.798 89.786C833.409 89.8906 834.25 89.9538 835.419 89.9146C836.542 89.8887 838.273 89.6707 839.143 89.5508C840.201 89.4121 840.833 89.3144 840.948 89.2839C840.735 89.2845 839.811 90.1177 839.415 90.8487C838.912 91.6113 838.605 92.3627 837.326 92.601C836.476 92.785 832.806 92.5775 831.156 92.7121C829.409 92.8795 828.453 93.6905 830.364 96.5096C830.611 96.8595 832.031 96.7568 833.567 96.6677C835.096 96.5829 836.582 96.5186 835.41 97.4067C830.826 97.7894 829.903 97.6958 829.25 97.8142C828.709 97.8998 829.019 98.0298 829.713 98.1622C830.929 98.4649 834.987 98.5239 835.158 98.5736C835.19 99.6045 830.977 100.455 827.886 100.611C824.623 100.807 821.503 100.565 818.659 100.251C818.58 100.236 818.338 100.248 818.26 100.232C814.968 99.7937 811.956 99.2778 810.924 99.3845C807.949 99.6865 805.227 102.237 804.612 102.212C802.492 102.118 804.306 100.842 803.853 100.323C803.389 99.804 797.363 102.15 797.067 101.999C795.95 101.381 797.162 99.8209 797.048 99.7353C795.649 98.6876 787.684 99.6653 785.482 99.2361C785.54 100.279 789.968 100.5 787.14 102.087C783.864 103.941 783.82 99.3463 783.729 99.1406C773.254 98.857 763.532 98.9245 751.419 98.722C747.643 98.6462 744.196 98.6919 740.564 98.8758C740.876 101.26 748.496 99.2693 748.746 99.6414C749.636 101.441 737.039 101.737 734.521 101.185C736.031 101.605 737.434 102.04 738.752 102.492C736.865 105.402 731.031 102.205 726.566 103.75C725.169 104.246 727.982 105.147 727.92 105.223C726.431 106.424 723.723 105.747 725.587 104.161C721.678 105.807 722.137 104.23 718.982 104.257C718.978 104.257 718.975 104.257 718.972 104.257C718.949 104.257 718.959 104.281 718.985 104.324C719.091 104.488 719.446 104.921 719.031 105.338C718.846 105.544 718.49 105.746 717.844 105.906C716.742 106.175 711.261 106.376 710.609 107.389C710.322 107.817 713.228 112.119 713.434 108.322C719.542 109.942 715.287 106.527 717.663 106.521C717.901 106.524 717.667 107.434 719.141 107.725C720.024 107.876 721.451 107.847 723.746 107.365C723.276 109.153 721.339 109.606 719.228 109.599C716.983 109.582 714.698 108.951 714.083 109.222C712.614 109.873 715.946 110.766 719.271 110.537C721.416 110.395 723.401 109.857 724.087 108.717C723.308 111.741 724.935 109.075 727.317 109.036C729.898 108.991 728.838 109.952 730.19 109.859C733.734 109.621 732.143 107.63 734.948 109.323C732.022 103.659 739.269 108.23 740.744 109.72C738.11 110.145 735.143 110.667 731.435 111.242C731.67 111.533 731.903 111.824 732.136 112.115C731.175 112.143 730.166 112.174 729.126 112.204C729.27 111.898 729.414 111.592 729.555 111.286C724.293 113.582 722.523 111.49 722.088 111.494C721.194 111.505 720.27 111.518 719.317 111.533C714.309 111.596 709.328 111.761 705.044 111.906C704.311 111.933 704.813 113.824 699.47 112.529C697.786 112.119 699.284 110.563 697.422 110.866C695.302 115.018 695.216 111.788 694.54 111.816C692.627 111.911 691.599 112.981 691.436 113.001C689.221 113.284 686.168 113.353 684.819 113.666C684.801 113.683 685.653 114.841 684.73 114.575C684.662 114.551 684.407 114.243 684.144 113.807C680.12 112.893 674.053 110.678 669.553 112.264C671.163 112.523 672.861 112.766 674.619 112.986C672.231 112.734 659.811 114.708 662.961 115.969C664.829 116.756 669.314 113.069 670.112 116.315C665.022 115.721 644.21 117.957 642.934 117.275C642.716 117.175 643.971 116.05 643.672 115.926C643.423 115.83 638.984 116.288 638.401 115.91C638.04 115.684 639.944 114.933 639.769 114.556C639.591 114.284 634.155 114.113 633.972 115.474C635.212 114.858 638.982 115.133 637.086 116.363C636.842 116.516 635.502 115.724 635.214 115.919C632.512 117.711 640.858 116.862 642.295 116.826C637.861 118.419 631.548 117.663 626.784 118.235C622.417 118.578 621.547 118.52 620.106 118.598C618.808 118.652 617.883 118.711 617.033 118.795C615.213 118.194 616.527 117.804 617.921 117.425C618.666 117.236 619.435 117.046 619.755 116.844C620.083 116.641 619.636 116.435 618.471 116.189C613.927 115.148 613.886 115.497 614.175 116.157C614.555 116.813 615.918 117.752 615.803 117.82C613.577 118.893 608.205 112.642 608.038 117.229C605.704 116.443 606.47 115.894 603.179 116.362C603.601 116.697 604.018 117.032 604.428 117.367C600.677 119.871 593.463 112.888 594.038 112.399C595.575 111.083 599.43 113.369 599.771 113.332C600.289 113.276 601.771 108.672 607.222 113.062C609.592 110.032 598.513 110.599 603.602 108.674C600.142 108.868 586.671 106.214 584.682 107.548C584.443 107.721 585.451 110.861 582.153 109.187C580.585 108.391 584.414 108.457 583.703 107.729C582.508 106.504 572.902 106.117 563.527 106.2C554.265 106.255 545.769 106.124 543.531 106.12C543.184 106.111 543.34 105.15 543.006 105.147C541.881 105.13 538.597 106.498 537.539 106.084C538.724 106.899 538.269 107.373 537.416 107.637C536.559 107.9 535.541 107.982 534.998 107.965C534.706 107.978 534.451 107.984 534.242 107.985C530.204 107.98 530.405 106.243 528.738 105.983C522.353 104.959 513.888 109.251 509.625 105.626C509.969 109.361 502.443 104.036 499.29 104.155C496.778 104.241 493.418 106.91 496.776 108.243C492.555 108.284 488.36 109.267 484.792 109.821C484.202 109.913 484.915 108.735 483.911 108.929C483.821 108.955 483.796 110.046 482.953 110.243C481.06 110.691 479.969 110.838 479.306 110.789C476.874 110.738 478.782 109.147 477.443 108.807C476.417 108.544 475.681 108.438 475.139 108.436C476.388 108.246 477.679 108.036 478.943 107.821C482.056 107.23 485.201 106.7 486.223 106.592C485.37 105.132 481.757 106.045 478.828 106.879C476.529 107.428 474.434 107.894 473.275 107.784C473.165 107.772 473.392 106.418 473.282 106.421C473.279 106.421 473.277 106.421 473.275 106.422C472.103 106.46 464.837 107.69 466.507 109.102C466.954 109.48 470.317 109.149 474.343 108.556C473.283 108.971 474.266 110.352 474.081 110.436C471.806 111.43 465.962 110.574 463.942 110.567C463.479 110.568 463.604 111.509 463.529 111.518C461.678 111.477 462.176 108.71 460.567 111.663C456.956 108.609 466.699 110.587 465.827 108.458C465.103 106.9 444.3 109.569 444.563 112.159C444.469 111.881 444.155 111.55 443.535 111.193C442.161 110.402 436.375 111.073 435.402 111.622C435.239 111.729 435.478 114.299 435.269 114.336C434.741 114.435 427.502 112.841 424.924 114.496C426.383 114.781 427.843 115.063 429.304 115.342C420.611 115.843 421.987 116.519 424.935 117.145C425.081 117.145 425.228 117.235 425.367 117.238C427.649 117.69 430.568 118.072 430.625 118.272C430.847 119.064 416.033 120.241 418.769 117.701C419.152 117.362 426.055 118.086 422.575 116.549C421.968 116.283 417.594 116.975 417.353 116.795C415.757 115.621 425.253 113.504 423.979 111.779C421.754 113.59 418.727 112.842 416.082 113.392C414.878 113.641 414.637 114.945 414.487 114.976C412.257 115.404 413.459 113.998 412.712 114.062C412.316 114.103 407.993 117.146 408.682 113.139C408.277 113.235 407.892 113.328 407.526 113.417C400.035 115.808 403.044 116.133 407.617 115.963C409.518 115.906 411.656 115.788 413.7 115.655C412.203 116.502 409.866 116.743 407.649 116.845C406.312 116.914 404.946 116.916 404.043 117.118C403.33 117.278 403.847 118.579 402.618 118.914C400.568 119.577 385.21 119.038 381.067 118.774C383.515 118.205 382.736 116.79 380.83 116.966C378.926 117.139 380.603 119.007 380.24 119.229C379.836 119.478 370.845 118.819 369.402 119.073C376.093 118.238 374.525 116.835 368.858 116.789C369.673 116.36 370.49 115.93 371.28 115.499C367.985 116.161 361.053 114.011 359.212 114.659C358.917 114.764 359.984 115.976 359.818 116.035C358.127 116.559 352.607 115.293 352.317 115.7C352.097 116.044 354.483 117.078 353.595 117.572C353.397 117.676 351.146 116.021 348.865 116.395C348.045 116.533 348.526 117.686 348.319 117.749C346.838 118.198 347.38 116.881 345.589 116.636C345.286 116.592 344.911 116.582 344.438 116.621C342.099 116.809 340.336 118.662 337.219 117.967C347.589 120.592 338.822 119.412 334.501 120.034C333.821 120.133 334.311 122.23 330.254 121.112C339.099 117.57 327.794 119.062 325.513 118.953C325.388 118.937 325.383 117.564 324.269 117.511C324.174 117.509 324.289 118.441 323.246 118.482C313.377 118.871 319.696 118.003 317.855 117.035C317.082 116.623 312.277 117.794 310.991 117.787C310.697 117.782 310.85 116.822 309.718 116.826C307.709 116.835 305.869 117.807 304.546 117.849C304.392 117.849 304.422 116.328 301.897 116.746C301.189 116.863 300.383 117.379 301.372 117.846C304.658 119.383 311.052 117.085 314.795 118.631C318.21 120.04 307.341 119.841 306.777 119.831C306.569 119.83 308.714 119.139 306.559 118.925C304.736 118.746 301.312 121.271 298.598 120.618C298.391 120.57 296.278 118.279 296.381 118.152C296.475 118.06 299.827 117.675 299.361 117.017C299.302 116.941 297.18 116.894 296.916 116.406C296.592 115.812 295.828 110.054 295.377 109.896C294.22 109.507 294.944 110.837 294.195 110.724C292.588 110.484 287.042 108.629 286.811 110.611C287.731 110.755 288.65 110.899 289.57 111.044C284.432 111.102 286.599 112.01 285.863 112.362C285.071 112.743 285.334 111.003 283.611 110.792C283.234 110.743 276.011 110.916 276.129 111.654C280.141 110.591 278.614 112.711 278.797 112.754C279.491 112.913 280.411 111.727 281.349 111.776C287.947 112.146 281.242 113.874 282.789 114.408C283.321 114.588 284.415 113.585 284.641 113.644C285.377 113.836 285.356 115.189 285.852 115.094C287.011 114.872 285.713 112.919 285.807 112.822C286.867 111.653 290.871 113.259 288.302 115.27C289.793 116.064 290.033 113.537 291.207 114.584C293.54 116.658 289.979 116.039 289.007 116.345C285.512 117.447 284.511 116.445 279.615 116.646C277.856 116.717 275.743 117.893 274.932 117.94C274.416 117.969 269.678 113.571 269.395 120.267C267.538 119.575 264.677 115.095 262.76 115.258C261.021 115.407 261.535 117.789 261.371 117.877C261.116 118.016 259.058 117.789 258.338 118.111C257.506 118.492 257.902 119.404 256.595 119.75C253.353 120.61 253.459 118.195 253.131 118.032C249.31 116.16 250.949 119.626 250.096 119.89C249.297 120.121 238.292 118.712 236.103 119.611C236.999 119.123 237.957 118.638 238.861 118.154C237.194 116.643 235.47 119.111 235.43 116.405C235.11 120.774 231.765 117.877 230.773 118.007C230.388 118.058 230.43 118.802 229.957 118.842C229.871 118.849 229.779 118.855 229.684 118.86C227.392 118.96 223.023 118.507 221.913 118.883C217.633 120.348 226.559 122.415 229.764 123.049C230.201 123.152 230.52 123.219 230.641 123.24C230.441 123.237 230.137 123.25 229.768 123.277C226.393 123.498 217.981 124.606 222.675 126.396C223.487 126.707 224.867 124.731 225.329 124.647C228.402 124.095 226.018 125.885 226.265 126.048C226.669 126.311 228.65 124.585 229.201 124.778C229.344 124.826 228.673 125.828 229.825 126.248C230.087 126.363 230.462 126.436 231.01 126.435C230.786 126.718 230.366 126.911 229.841 127.041C226.997 127.635 221.321 126.937 220.443 127.245C220.057 127.379 222.539 130.631 215.428 127.542C215.516 127.846 215.603 128.15 215.691 128.454C211.776 128.637 207.863 128.817 203.972 128.998C204.381 128.289 206.571 126.846 203.797 127.185C202.227 127.38 203.417 128.929 203.274 128.977C201.748 129.42 176.977 129.271 173.249 129.685C171.782 129.792 168.012 131.242 167.739 131.287C167.193 131.358 166.199 131.361 165.068 131.347C161.157 131.428 156.436 131.266 155.245 131.423C154.135 131.574 155.24 132.848 154.244 132.818C153.321 132.787 154.232 131.494 153.957 131.449C151.243 131.116 136.432 132.954 133.375 131.822C135.279 132.141 145.702 129.474 145.595 128.578C145.539 128.457 142.875 127.534 142.365 128.011C141.457 126.928 138.548 130.303 136.973 129.672C136.797 129.601 137.449 127.718 134.656 127.423C133.689 127.323 131.228 128.823 128.713 127.242C127.198 127.606 122.986 127.462 118.486 127.372C112.717 127.234 105.756 127.26 105.059 128.454C105.021 128.562 107.798 129.124 105.99 130.035C103.586 131.248 105.615 127.452 102.714 127.274C102.293 127.244 94.1784 128.022 93.905 128.265C91.5315 130.459 98.7328 130.941 98.6361 131.187C98.4271 131.805 92.5063 132.468 92.2457 132.338C92.0085 132.2 96.7354 129.215 90.9314 130.546C91.6207 130.841 92.3118 131.135 92.9991 131.43C90.2761 132.205 89.9068 130.32 89.2306 130.238C87.1237 129.973 85 132.968 81.4243 129.565C80.4804 128.662 81.9177 127.543 81.7981 127.407C80.6597 126.185 79.4479 129.651 77.6877 127.186C77.5531 127.001 81.2935 125.316 74.6323 125.602C75.1034 125.825 75.5721 126.049 76.0434 126.273C75.148 126.861 68.32 127.458 67.3522 127.356C64.5962 127.074 66.9275 125.247 64.1669 125.545C66.07 127.893 57.4695 128.439 57.8608 126.353C57.6735 126.767 57.3251 127.069 56.8595 127.283C54.6276 128.415 49.458 127.076 46.8253 127.065C44.7993 127.06 40.8045 128.25 40.1503 128.126C39.3707 127.975 39.5673 126.205 38.1855 125.831C37.7685 125.724 33.6675 127.077 29.9638 125.289C29.2284 124.945 27.7095 121.963 29.0132 121.199C31.2518 119.893 35.5562 122.253 35.4687 120.482C35.3621 118.589 29.6784 119.787 28.1047 119.555C20.9128 118.483 25.0288 116.426 24.8429 115.818C24.3394 114.342 20.4393 114.419 20.2491 114.286C19.5627 113.699 22.342 112.506 22.3706 111.601C22.4103 110.424 18.6059 108.324 19.4654 107.921C20.6904 107.351 24.1792 109.094 24.3905 109.007C27.2515 107.837 23.2957 105.154 22.1932 103.825C21.8583 103.416 23.1667 102.73 22.8921 102.611C18.7482 100.813 22.041 106.443 19.2976 106.084C16.798 105.761 19.9947 103.955 19.8807 103.857C19.7745 103.75 16.8151 103.669 16.3349 103.037C16.1485 102.726 23.7157 99.1983 23.3853 97.6377C20.9602 98.0023 18.5337 98.3623 16.0881 98.7142C15.8738 96.6829 19.4301 98.1629 19.7633 97.9498C20.482 97.5246 18.4589 96.5083 18.5294 95.8647C18.5918 95.4558 20.9285 93.9824 18.789 93.394C18.0304 93.1901 16.5207 94.626 13.7931 93.173C23.1512 91.2823 16.669 90.1617 16.3718 89.4438C16.1065 88.7247 20.5472 87.0122 15.1374 87.3321C14.8783 83.3758 15.2493 86.082 16.7785 85.3805C18.6687 84.5155 14.2897 83.2403 21.1684 84.1855C20.7466 82.3388 15.2569 82.4984 14.9592 82.3479C14.7046 82.2146 15.9352 81.3001 15.4966 80.9926C10.3004 77.4209 13.8595 79.0503 12.3721 76.7653C12.2144 76.5643 7.38728 75.6963 11.0754 75.3783C17.809 74.7826 20.6399 77.3666 21.6974 71.7499C16.7106 69.3562 10.7527 72.9779 9.2309 73.024C6.94463 73.0957 9.30867 71.9689 9.03245 71.6458C8.9338 71.5426 6.96576 71.6191 6.93385 71.5266C5.53963 67.2496 15.7412 71.5075 18.9903 70.7226C18.0949 70.0869 17.2685 69.4501 16.3706 68.8125C17.554 68.7823 18.7306 68.7502 19.8889 68.7168C14.2966 67.4599 19.6839 68.2325 21.0495 64.7545C21.3729 63.9734 17.6931 65.3358 21.8558 63.1405C18.7753 62.6637 19.7449 61.9493 16.9814 62.9405C17.0189 61.5543 23.2827 59.9462 25.7461 59.2048C16.9962 57.7196 22.0138 62.7829 14.4728 60.1178C13.0939 61.841 16.6698 61.4977 16.383 61.7815C15.3606 62.8059 12.8752 61.1954 9.92615 64.7586C9.44435 65.3428 11.4759 67.1636 8.4653 67.057C8.1208 67.0432 6.22413 65.4764 6.26403 65.3637C6.51501 64.1588 8.40309 64.6318 8.48581 64.1263C8.56101 63.6501 6.45351 63.9157 6.45467 63.7817C6.40218 62.2662 8.19947 63.2225 7.94275 62.7447C7.35077 61.7092 0.024516 58.3535 9.6919 59.4189C1.60508 61.0483 8.59156 61.1034 11.8295 60.4415C12.667 60.2775 12.843 59.3725 14.022 59.057C15.5295 58.6482 17.2944 59.0748 18.0705 58.9043C18.9104 58.7155 14.1069 56.6059 21.0356 57.2003C17.4753 55.1011 11.3246 57.392 7.97352 55.8602C1.35734 52.7617 12.6273 52.243 13.9354 51.9185C14.2579 51.8389 13.1678 50.6173 13.3825 50.5421C13.7142 50.4328 20.3824 50.9673 21.0462 49.946C21.696 48.9305 18.5974 50.01 18.3844 48.956C18.2201 48.2516 26.292 46.9259 21.9138 46.4774C18.8875 46.1733 13.4172 49.0438 12.5 45.9729C16.8137 45.7208 21.2828 45.433 25.6917 45.1349C23.2455 43.9929 20.8151 42.8468 18.4007 41.6941C23.3106 41.2948 27.6915 42.5637 32.383 40.8346C20.9244 37.2324 36.0526 37.8083 36.2142 37.3451C36.2473 37.073 31.7043 34.0982 30.9933 33.551C34.9063 32.3401 47.0855 31.5857 39.8911 27.9454C41.1958 28.7728 44.265 26.6372 44.2308 26.48C43.7899 24.8323 37.0434 26.0048 38.1106 24.4936C39.3774 22.7404 41.2233 25.0675 43.1726 24.8497C50.5857 24.0203 50.9748 19.2217 54.6649 17.1491C55.8028 16.3826 57.3585 15.988 59.8746 16.2837C59.6805 15.9816 59.488 15.6794 59.2969 15.3771C69.379 15.5695 80.4034 15.4869 91.5827 15.423C95.8014 12.5699 107.546 10.3752 114.064 10.4646C114.14 10.4655 114.233 10.4704 114.341 10.479C116.003 10.614 121.349 11.7051 121.791 11.9256C122.639 12.3681 118.057 12.668 120.152 13.4845C120.606 13.6395 130.695 14.0036 129.927 12.5498C128.809 12.3973 125.293 13.2123 124.701 12.8792C120.804 10.4144 151.284 11.9935 150.991 10.8926C150.455 10.4313 149.908 9.96861 149.357 9.50456C150.899 9.69678 152.345 9.87946 153.725 10.0486ZM74.1407 131.498C73.0486 133.027 70.0366 132.034 68.2839 132.512C65.8839 133.185 61.7731 139.01 63.4296 133.241C67.1023 132.681 70.6495 132.095 74.1407 131.498ZM122.349 131.541C120.234 130.807 121.737 127.566 123.528 128.846C123.719 128.992 125.241 132.533 122.349 131.541ZM100.001 130.958C100.097 130.911 102.006 130.902 102.079 130.948C103.863 132.144 98.0756 132.167 100.001 130.958ZM211.601 126.074C209.147 126.247 210.964 129.124 212.491 127.908C212.587 127.83 211.761 126.065 211.601 126.074ZM209.836 126.022C207.877 123.45 204.078 128.773 207.154 128.199C207.474 128.141 209.914 126.148 209.836 126.022ZM114.956 130.517C115.149 129.512 117.277 129.913 118.155 130.123C118.179 131.031 115.843 130.37 114.956 130.517ZM173.573 128.41C173.573 127.611 166.773 127.976 166.44 129.051C167.413 128.536 173.477 129.106 173.573 128.41ZM192.895 126.853C192.681 126.721 189.974 126.971 190.068 127.661C191.423 128.545 193.806 127.452 192.895 126.853ZM233.474 126.31C233.62 126.137 231.652 121.745 236.192 124.618C236.852 125.039 234.512 126.198 234.742 126.355C235.245 126.66 235.626 126.802 235.935 126.827C233.824 127.198 231.731 127.393 231.511 127.129C230.523 125.88 233.419 126.381 233.474 126.31ZM253.735 123.149C254.207 122.439 257.118 122.871 257.786 123.179C257.901 123.237 257.369 125.112 258.7 124.996C259.763 124.899 258.209 122.938 260.266 123.287C262.353 123.638 259.535 124.959 259.719 125.061C259.952 125.193 263.225 124.392 263.097 125.513C263.011 126.343 259.539 125.711 258.692 125.873C257.589 126.08 258.897 127.489 257.072 127.159C255.929 126.953 256.599 124.527 256.359 124.4C256.165 124.296 252.133 125.636 253.741 123.157C253.739 123.155 253.737 123.152 253.735 123.149ZM236.499 126.717C236.342 126.8 236.157 126.844 235.935 126.827C236.123 126.793 236.312 126.754 236.499 126.717ZM80.8275 130.132C82.0687 130.827 78.5425 131.955 77.1317 131.03C77.0718 130.239 80.6334 130.025 80.8275 130.132ZM238.467 124.731C241.617 125.347 239.311 126.177 236.499 126.717C237.378 126.257 237.399 124.527 238.467 124.731ZM142.365 128.011C142.515 128.19 142.613 128.472 142.633 128.938C142.238 128.434 142.199 128.161 142.365 128.011ZM150.884 128.692C153.931 127.201 147.685 127.403 147.801 128.409C147.81 128.794 150.751 128.753 150.884 128.692ZM214.788 126.167C214.535 126.031 218.356 121.693 212.759 124.988C215.789 125.449 212.618 125.961 212.662 126.336C212.833 127.412 217.845 126.303 218.997 126.751C219.836 124.81 215.637 126.612 214.794 126.167C214.792 126.167 214.79 126.167 214.788 126.167ZM291.818 125.098C291.107 126.208 288.963 125.782 287.513 125.674C288.221 124.564 290.362 124.989 291.818 125.098ZM683.459 115.104C675.551 116.58 672.626 115.748 671.926 115.032C671.43 114.254 673.362 113.51 679.932 113.764C680.13 113.795 684.347 114.527 683.459 115.104ZM588.632 116.51C587.784 114.476 590.791 114.249 592.756 115.148C593.185 115.349 594.802 117.44 592.883 117.769C593.029 115.341 590.134 114.311 588.632 116.51ZM240.253 123.449C241.202 122.113 244.071 123.08 245.603 123.296C244.668 124.388 241.604 123.87 240.253 123.449ZM645.712 115.03C644.683 114.921 644.085 116.694 644.265 116.832C645.072 117.463 646.921 115.974 645.712 115.03ZM231.204 123.279C231.062 122.478 234.7 121.675 235.003 123.654C234.18 123.512 231.305 123.777 231.204 123.279ZM289.091 124.419C288.476 123.995 291.73 123.36 292.7 123.792C292.599 124.64 289.491 124.695 289.091 124.419ZM630.239 116.441C629.422 116.344 627.472 116.45 627.329 117.171C627.129 118.069 629.939 117.55 630.239 116.441ZM800.399 109.564C800.498 109.885 796.882 112.02 795.364 111.385C792.423 110.163 800.283 109.33 800.399 109.564ZM655.636 113.727C658.797 115.257 655.291 113.794 655.512 115.534C657.55 115.517 662.884 115.364 659.155 113.809C658.433 113.508 656.603 113.801 655.636 113.727ZM652.808 113.256C652.504 113.835 650.43 115.705 652.286 115.502C653.152 115.406 654.468 113.368 652.808 113.256ZM778.727 109.627C776.226 108.014 787.833 109.138 788.183 109.438C788.353 109.586 788.464 109.725 788.526 109.841C788.953 109.364 791.195 109.351 791.396 110.6C790.757 110.475 788.913 110.522 788.721 110.379C788.633 110.317 788.568 110.26 788.524 110.203C787.697 111.244 779.206 109.921 778.727 109.627ZM758.993 107.768C762.182 105.519 762.655 109.402 762.399 109.525C759.009 111.081 761.231 108.24 761.133 108.105C760.902 107.88 758.442 109.183 759.003 107.768C758.999 107.768 758.996 107.768 758.993 107.768ZM774.794 108.91C774.922 108.861 777.34 109.028 777.453 109.092C779.432 110.435 772.535 109.968 774.794 108.91ZM269.6 120.749C271.407 121.178 269.594 122.562 268.406 122.022C268.309 121.969 268.009 120.371 269.6 120.749ZM651.348 113.7C650.827 113.445 640.24 112.871 641.035 115.005C641.777 114.701 654.005 115.318 651.348 113.7ZM567.056 113.197C568.891 113.237 566.869 115.245 565.901 114.477C565.543 114.191 566.588 113.189 567.056 113.197ZM225.878 121.515C223.868 122.663 224.214 118.909 226.004 120.166C226.075 120.215 225.958 121.47 225.878 121.515ZM581.695 114.646C575.346 115.728 576.948 109.298 585.19 111.703C584.922 111.982 584.653 112.262 584.384 112.541C593.931 113.799 585.027 113.008 582.685 113.31C581.789 113.424 582.509 114.519 581.701 114.654C581.699 114.651 581.697 114.648 581.695 114.646ZM556.204 112.914C550.577 109.085 558.078 110.52 563.503 110.863C564.639 110.951 565.635 110.985 566.298 110.873C565.365 111.411 564.342 111.766 563.497 112.048C561.278 112.664 560.125 112.92 563.487 114.004C563.799 114.123 564.157 114.253 564.563 114.394C564.181 114.407 563.822 114.417 563.485 114.422C555.041 114.486 558.9 112.856 558.511 112.713C558.039 112.534 556.502 113.119 556.204 112.914ZM573.48 113.14C573.825 113.012 576.474 113.996 577.433 113.866C576.069 115.396 571.131 114.006 573.48 113.14ZM740.76 108.825C740.865 107.595 741.27 106.665 742.904 107.066C742.424 107.697 741.426 108.267 740.76 108.825ZM71.6383 125.147C70.0537 125.124 66.8211 124.778 67.8561 126.03C67.9826 126.137 71.6702 125.871 71.6383 125.147ZM616.318 114.232C615.59 114.085 606.781 113.644 609.784 115.112C610.239 115.333 612.429 115.479 614.394 115.381C616.338 115.284 618.098 114.939 616.318 114.232ZM663.16 112.354C662.4 112.38 659.39 112.748 659.347 113.039C659.18 114.05 662.873 113.331 663.16 112.354ZM63.4483 124.182C63.2646 124.066 58.1396 124.419 58.7186 124.996C59.8391 126.102 64.2187 124.599 63.4483 124.182ZM276.256 118.043C276.639 118.008 277.113 119.351 277.245 119.369C277.556 119.395 284.564 119.073 281.849 120.708C281.39 120.979 271.357 120.063 270.072 119.868C269.611 118.029 273.843 119.87 274.896 119.709C275.08 119.678 275.231 118.153 276.253 118.051C276.254 118.049 276.255 118.046 276.256 118.043ZM749.125 107.376C749.211 106.951 750.111 106.586 751.261 106.381C754.159 106.051 757.688 106.108 757.602 106.999C755.564 107.092 753.444 107.177 751.243 107.243C750.519 107.283 749.815 107.327 749.125 107.376ZM745.986 107.183C744.67 106.376 747.722 106.069 748.66 106.449C748.66 107.225 746.17 107.295 745.986 107.183ZM646.804 108.701C645.999 109.019 648.589 110.609 648.041 110.961C647.687 111.18 645.836 110.621 645.287 111.175C645.13 111.35 647.047 112.864 647.586 112.773C648.348 112.65 647.549 111.428 648.387 111.386C651.177 111.246 653.746 112.04 656.489 111.905C656.737 111.891 654.774 111.086 656.89 111.011C657.214 110.997 659.239 112.234 661.861 111.916C667.607 107.516 671.752 111.462 681.521 108.908C680.903 108.631 673.969 108.248 673.708 108.203C666.484 108.109 655.81 108.43 649.877 108.662C648.351 108.719 649.129 109.553 648.475 109.611C647.958 109.656 648.5 108.032 646.804 108.701ZM72.4459 124.229C71.6157 122.664 69.0135 123.779 67.2762 123.756C67.9452 125.177 70.7782 123.944 72.4459 124.229ZM709.809 107.825C708.988 107.914 706.472 107.518 706.29 108.006C706.041 108.643 709.667 108.917 709.809 107.825ZM316.005 119.644C316.087 119.603 318.039 119.745 318.111 119.798C319.832 121.131 313.96 120.697 316.005 119.644ZM364.543 120.773C366.146 120.562 367.768 120.04 368.329 121.329C367.292 121.147 364.371 121.679 364.543 120.773ZM431.328 117.822C430.902 116.148 435.651 116.961 436.546 117.053C436.271 117.83 431.641 119.032 431.328 117.822ZM740.236 103.513C742.333 103.515 741.78 100.968 743.138 102.086C743.361 102.279 744.208 107.603 741.926 105.678C741.497 105.337 743.063 103.988 740.236 103.513ZM586.533 111.796C587.238 110.694 589.305 111.092 590.711 111.229C590.373 112.052 587.545 111.746 586.533 111.796ZM54.3903 123.096C53.0922 121.532 47.1523 122.804 48.6465 123.828C48.8695 123.962 53.5855 123.05 54.3903 123.096ZM246.827 118.369C249.163 117.143 244.358 116.707 242.838 117.922C243.521 117.844 246.666 118.448 246.827 118.369ZM414.978 117.72C415.098 117.665 417.823 117.668 417.946 117.723C420.238 118.93 412.523 118.927 414.978 117.72ZM348.129 118.662C349.125 117.654 355.537 118.539 357.046 119.565C355.612 121.078 346.865 119.937 348.129 118.662ZM730.185 104.93C732.229 104.727 734.04 104.906 735.664 105.237C735.488 106.114 730.538 105.554 730.185 104.93ZM424.935 117.145C425.081 117.145 425.228 117.235 425.367 117.238C425.22 117.209 425.076 117.175 424.935 117.145ZM687.041 106.385C685.808 106.144 686.223 107.703 686.291 107.745C687.182 108.182 688.469 106.662 687.041 106.385ZM70.3973 121.955C69.7387 120.549 66.913 121.765 65.2016 121.479C65.7414 122.594 69.0707 122.158 70.3973 121.955ZM548.813 109.739C546.676 108.108 555.599 106.638 557.636 107.663C557.724 108.642 549.013 109.972 548.813 109.739ZM239.67 116.178C239.517 115.055 236.239 116.41 236.94 116.939C237.386 117.274 239.76 116.874 239.67 116.178ZM562.343 108.396C562.646 108.282 563.089 108.34 563.516 108.491C564.2 108.78 564.807 109.415 564.402 109.854C564.134 110.143 563.812 110.083 563.509 109.872C562.793 109.457 562.193 108.46 562.343 108.396ZM635.471 108.23C635.126 108.072 631.095 109.47 632.861 110.508C634.083 111.23 634.177 109.602 634.455 109.581C634.745 109.563 641.653 111.19 635.471 108.23ZM505.842 109.894C507.487 109.401 509.548 109.831 511.349 109.739C510.628 110.456 506.573 110.787 505.842 109.894ZM252.565 115.993C252.139 115.523 241.139 115.141 247.377 116.597C247.743 116.676 253.783 117.382 252.565 115.993ZM740.236 103.513C739.966 103.514 739.655 103.477 739.282 103.387C739.649 103.41 739.962 103.47 740.236 103.513ZM708.604 105.087C709.196 104.25 706.041 104.139 705.153 104.605C704.901 105.611 708.513 105.204 708.604 105.087ZM511.444 108.596C512.469 108.094 514.392 108.528 515.724 108.427C515.51 109.194 511.916 109.352 511.444 108.596ZM439.756 113.332C441.963 113.635 444.628 113.232 444.597 112.303C444.653 112.445 444.771 112.591 444.957 112.732C445.147 112.872 447.439 112.268 448.483 112.504C454.691 113.969 425.154 115.248 442.042 111.461C441.282 112.086 440.517 112.709 439.756 113.332ZM339.535 116.325C338.365 115.171 334.917 116.506 335.796 116.972C336.416 117.293 340.725 117.489 339.535 116.325ZM388.206 115.139C387.821 114.961 384.343 115.925 384.266 116.521C386.343 117.057 390.012 115.98 388.206 115.139ZM330.301 114.781C329.544 114.59 328.545 116.386 328.633 116.468C329.369 117.153 331.551 115.828 330.301 114.781ZM735.193 98.9073C734.201 98.4521 730.854 100.026 730.107 101.287C729.939 101.066 729.521 100.793 728.739 100.484C728.741 100.484 728.743 100.483 728.746 100.483C728.379 100.323 723.722 100.488 718.815 100.654C711.464 100.883 704.797 101.44 717.187 102.437C717.763 102.48 717.07 101.637 718.856 101.529C719.07 101.517 719.315 101.513 719.595 101.518C719.784 101.523 719.917 102.401 720.504 102.415C721.899 102.461 728.864 102.566 729.987 101.759C730.01 101.921 730.105 102.07 730.291 102.199C732.036 103.344 736.025 99.2488 735.193 98.9073ZM394.994 114.579C394.304 114.296 392.171 114.737 391.986 115.527C393.106 115.844 396.6 115.242 394.994 114.579ZM252.259 112.796C250.977 112.137 247.741 113.295 248.711 113.943C249.289 114.338 253.728 113.551 252.259 112.796ZM372.705 115.983C381.012 116.683 374.66 115.859 375.9 114.685C374.857 115.12 373.752 115.554 372.705 115.983ZM766.823 101.614C765.639 101.339 767.067 99.1021 768.33 100.339C768.727 100.731 767.494 101.764 766.823 101.614ZM820.163 102.752C818.903 100.72 825.242 102.084 822.7 103.381C822.556 103.427 820.231 102.834 820.163 102.752ZM782.593 100.38C781.791 101.719 781.26 101.865 779.071 101.479C782.336 101.173 779.343 99.8976 782.593 100.38ZM444.563 112.159C444.581 112.213 444.596 112.253 444.597 112.303C444.578 112.255 444.568 112.208 444.563 112.159ZM323.075 114.938C322.126 113.76 319.472 113.768 320.234 114.95C320.309 115.059 322.651 115.777 323.075 114.938ZM730.107 101.287C730.254 101.483 730.197 101.621 729.987 101.759C729.965 101.606 730.011 101.457 730.107 101.287ZM337.617 114.375C337.493 115.233 341.673 115.656 341.835 115.557C344.252 114.114 339.296 114.364 337.617 114.375ZM226.79 111.583C226.583 111.676 227.965 113.872 228.79 112.99C229.426 112.306 227.555 111.23 226.79 111.583ZM790.129 100.051C791.375 100.094 793.091 100.155 793.393 101.22C792.544 101.027 790.097 100.823 790.129 100.051ZM817.59 101.189C816.033 102.346 812.668 102.168 810.537 101.86C810.589 100.229 816.16 101.494 817.59 101.189ZM738.247 99.3157C738.181 99.2493 735.363 98.948 735.812 100.013C736.525 101.564 739.039 99.8615 738.247 99.3157ZM232.757 112.676C234.077 111.913 230.958 109.63 229.653 111.437C228.953 112.36 232.535 112.801 232.757 112.676ZM314.75 113.189C312.818 113.764 317.537 115.028 318.209 113.906C317.343 113.789 315.44 112.986 314.75 113.189ZM382.241 112.459C375.616 109.422 379.386 115.283 380.522 114.714C380.696 114.633 382.407 112.53 382.241 112.459ZM39.3306 116.752C38.4815 117.221 41.706 118.832 42.0883 117.735C42.3263 117.049 39.8869 116.453 39.3306 116.752ZM475.139 108.436C474.87 108.477 474.607 108.517 474.343 108.556C474.535 108.481 474.793 108.434 475.139 108.436ZM297.655 108.271C301.727 113.039 301.383 109.447 301.746 109.477C302.526 109.551 304.339 110.861 305.827 110.7C304.114 111.172 302.387 111.643 300.678 112.116C301.997 112.49 313.676 114.551 313.939 113.804C314.323 112.742 310.622 112.969 310.512 112.871C310.362 112.732 309.868 109.734 309.53 109.61C308.967 109.412 299.195 109.057 297.655 108.271ZM368.681 113.36C369.726 113.698 370.058 114.874 370.53 114.582C370.692 114.483 370.695 113.355 371.24 113.053C370.405 113.157 369.534 113.26 368.681 113.36ZM290.049 112.227C288.899 110.816 294.197 111.492 294.362 111.652C295.246 112.612 290.986 113.379 290.049 112.227ZM335.561 113.327C335.375 113.243 331.187 112.709 331.216 113.473C332.275 114.085 337.887 114.389 335.561 113.327ZM371.939 112.961C373.497 113.062 376.493 114.112 376.1 112.424C376.098 112.424 376.096 112.424 376.093 112.424C374.722 112.608 373.323 112.788 371.939 112.961ZM237.316 109.069C234.789 106.372 235.976 109.782 238.238 110.653C238.907 109.44 237.737 109.508 237.316 109.069ZM229.345 107.119C228.547 106.646 220.935 107.297 222.106 108.709C222.529 109.213 226.941 107.858 227.127 107.954C227.44 108.096 226.056 109.7 228.412 109.349C228.26 108.815 229.606 107.277 229.345 107.119ZM235.234 107.344C232.692 105.302 232.216 109.101 234.062 109.097C234.795 109.099 235.591 107.639 235.234 107.344ZM245.56 107.695C244.654 107.327 242.198 106.785 240.52 108.042C242.761 108.157 245.015 108.281 247.278 108.411C247.545 107.7 246.355 108.018 245.553 107.695C245.556 107.695 245.558 107.695 245.56 107.695ZM841.181 90.1804C840.979 89.6704 840.982 89.2903 841.064 89.0707C841.125 88.8516 841.611 88.7609 841.679 88.8885C841.858 89.3122 841.653 89.7585 841.487 90.0357C841.307 90.3146 841.256 90.4116 841.181 90.1804ZM22.2349 82.5002C21.6281 82.0763 21.2708 80.6692 19.9541 81.417C21.2844 82.4492 22.6043 83.4797 23.8963 84.5092C24.8708 82.1148 22.9115 82.9678 22.2349 82.5002ZM17.1989 73.8168C17.3878 73.7579 16.338 70.0959 18.7341 72.5319C20.3267 74.1803 11.6808 75.8289 10.0834 74.1824C11.8124 73.4372 15.6207 74.2967 17.1989 73.8168ZM2.51195 57.8221C2.41146 57.5329 5.41409 57.1804 5.78459 57.3866C7.67116 58.5058 2.88788 59.4192 2.51195 57.8221ZM12.4731 58.6499C10.9681 57.9365 14.2886 57.48 15.323 57.8849C15.4099 58.5683 12.6942 58.755 12.4731 58.6499ZM815.264 38.1563C813.725 35.5838 811.916 40.8675 814.584 39.9167C814.708 39.8719 815.329 38.2818 815.264 38.1563ZM5.50062 54.1969C6.92143 54.9335 3.719 55.3397 2.88913 54.8951C2.79402 54.2142 5.26455 54.0927 5.50062 54.1969ZM814.362 32.1665C812.154 30.2623 812.694 36.3161 812.962 36.5718C814.101 37.5851 818.187 35.4264 819.002 34.8817C813.001 35.4783 815.379 33.0645 814.362 32.1665ZM803.78 35.2963C801.652 35.8477 806.957 37.305 808.052 35.6777C807.009 35.7098 804.395 35.1362 803.78 35.2963ZM791.081 32.8831C789.965 32.6294 786.579 32.0119 785.999 32.9446C787.235 32.806 790.599 33.8413 791.081 32.8831ZM788.59 29.9651C786.85 28.6256 786.317 32.3618 788.401 31.306C788.48 31.2652 788.652 30.0386 788.59 29.9651ZM778.595 28.3568C777.433 26.8414 776.069 30.4484 777.943 30.5824C778.506 30.616 778.718 28.5303 778.595 28.3568ZM811.814 25.5591C810.185 24.8404 807.907 27.3377 811.463 27.7907C810.199 28.1284 808.92 28.4668 807.682 28.8086C812.241 30.4768 812.06 26.8623 813.389 27.075C815.272 27.3793 814.954 30.3439 814.552 31.2595C815.578 30.1188 818.69 29.8484 821.804 29.766L821.53 29.7527C822.98 29.684 824.328 29.6451 825.298 29.5415C824.34 29.2242 823.037 28.7957 821.587 28.3431L821.874 28.357C819.288 27.6166 816.576 26.8722 814.645 26.4821C813.705 26.2951 812.764 27.0665 811.986 26.9379C810.741 26.7276 811.904 25.6065 811.821 25.5594C811.819 25.5593 811.817 25.5592 811.814 25.5591ZM765.466 28.1137C762.108 26.3923 764.219 30.0596 766.128 29.428C766.21 29.3787 765.548 28.1558 765.466 28.1137ZM2.12618 43.012C5.49066 44.6407 2.60555 46.6505 11.3167 43.6404C7.61491 45.7983 11.0995 45.2027 10.3808 46.0759C9.8016 46.7681 7.64606 46.1773 8.88391 47.583C7.08982 46.0788 0.53751 46.3148 0.957917 46.0349C0.959341 46.035 0.960769 46.0351 0.962201 46.0352C0.912625 45.8832 1.2242 42.4834 2.12618 43.012ZM791.347 23.3491C790.35 18.8892 789.664 25.8939 787.509 22.161C784.361 27.3913 795.832 22.4194 797.04 26.9814C784.847 26.0181 804.984 31.7364 796.664 24.6891C803.607 27.402 798.999 23.9443 800.116 23.1285C801.334 22.2604 805.262 23.4212 805.128 21.7665C805.125 21.7664 805.123 21.7663 805.121 21.7662C802.657 21.775 800.243 21.7919 797.787 21.8141C800.064 25.4594 795.101 24.2023 793.512 21.2514C792.793 21.9501 792.056 22.6488 791.347 23.3491ZM805.015 27.2122C804.776 27.1178 799.473 27.3976 799.789 28.1266C800.509 28.6057 807.963 28.3805 805.015 27.2122ZM826.448 27.3766C825.351 27.374 822.908 26.5972 821.977 27.8966C823.624 27.9804 825.898 28.7251 826.448 27.3766ZM728.679 25.6462C726.252 26.9201 734.037 26.7041 731.696 25.5597C731.564 25.5045 728.781 25.5854 728.679 25.6462ZM785.791 23.8515C783.316 22.4322 784.412 26.7669 786.267 25.696C786.374 25.6328 785.902 23.9162 785.791 23.8515ZM4.96196 42.5773C5.02776 41.5387 10.9674 42.3374 12.1267 42.3188C11.451 43.3113 4.67329 43.799 4.96196 42.5773ZM827.17 23.4258C827.587 21.5149 826.083 21.6997 824.771 22.2655C823.425 22.841 822.149 23.856 821.92 23.7986C821.841 23.7789 821.797 23.7171 821.779 23.6278L822.111 23.6439C822.091 23.5552 822.101 23.4401 822.128 23.3121L821.793 23.2958C821.888 22.776 822.223 22.0399 822.152 22.0071C822.122 21.994 822.015 21.9815 821.847 21.9692L822.195 21.9861C820.818 21.8777 816.289 21.7644 816.031 21.8536C815.823 21.9333 816.777 24.3135 815.53 24.9859C816.606 24.4536 819.296 24.4247 822.066 24.5488L821.742 24.5331C824.811 24.645 826.96 24.8322 826.944 24.6814C827.036 24.5772 826.717 23.9178 826.648 23.455C826.615 23.2238 826.663 23.043 826.849 23.0053C826.933 22.9864 827.056 23.0029 827.155 23.0668C827.248 23.1316 827.345 23.239 827.172 23.4257C827.171 23.4258 827.17 23.4258 827.17 23.4258ZM820.887 23.2354C822.306 24.2879 818.207 24.1946 817.18 23.7829C814.984 22.8635 820.701 23.1077 820.887 23.2354ZM810.949 21.8375C810.467 21.594 806.188 21.2004 805.779 22.2722C807.77 23.7693 811.999 22.3976 810.949 21.8375ZM762.881 20.6429C761.787 20.7726 758.87 19.907 758.703 20.8542C759.741 20.7286 762.698 21.5915 762.881 20.6429ZM25.9802 34.2694C24.1824 33.4929 28.3111 33.1256 29.5208 33.4917C29.6058 34.1251 26.148 34.3366 25.9802 34.2694ZM785.584 14.7585C784.92 14.4288 771.139 14.8762 769.265 15.323C771.092 16.0396 784.709 16.3639 785.33 16.052C785.514 15.952 785.67 14.8063 785.584 14.7585ZM815.019 15.4733C816.305 14.1362 817.031 15.853 817.187 15.882C818.744 16.1743 821.87 16.0229 821.124 17.3329C818.505 16.6477 812.404 18.1258 815.019 15.4733ZM761.995 14.3037C757.58 14.7802 766.06 16.3355 764.984 14.8626C764.904 14.7733 762.437 14.2534 761.995 14.3037ZM787.121 14.3934C788.195 13.2728 801.823 14.7299 803.984 14.8428C801.962 16.8444 800.45 15.1971 797.804 15.2031C797.093 15.2075 797.254 16.0816 797.178 16.0801C795.96 16.0752 796.907 15.1077 796.155 15.0649C795.656 15.029 785.656 15.9369 787.121 14.3934ZM815.762 14.5398C816.262 14.0473 819.924 13.906 822.599 13.94L822.175 13.9193C823.371 13.9112 824.191 13.9413 824.278 14.02C825.047 14.7478 823.953 15.0425 822.128 15.0723L822.541 15.0924C819.745 15.0788 816.109 14.7115 815.762 14.5398ZM785.918 12.5054C787.437 10.1178 794.25 11.9583 789.526 13.018C789.092 13.1143 787.204 12.007 785.918 12.5054ZM762.48 12.0005C762.237 11.9282 757.733 11.3964 757.68 12.1641C758.245 12.4757 764.947 12.8078 762.48 12.0005ZM764.923 9.41573C764.808 9.43318 765.902 10.9285 763.698 10.7196C763.526 10.7001 763.161 9.02671 760.478 9.61167C759.928 9.73208 759.103 10.8282 759.159 10.8975C761.806 13.549 770.68 8.6099 764.923 9.41573ZM815.978 13.1953C815.562 12.4686 816.739 10.4313 817.685 11.5407C818.091 12.0197 817.227 13.2331 815.978 13.1953ZM747.282 11.1202C750.649 9.83057 740.051 9.65894 739.514 10.061C739.892 10.8132 746.963 11.218 747.282 11.1202ZM30.0056 24.4234C30.0035 24.4234 30.0014 24.4235 29.9993 24.4235C32.2744 24.6836 30.8846 25.7566 30.9908 25.7886C35.8127 27.2791 34.474 24.9025 35.2282 24.6105C36.8646 23.9775 36.592 26.891 39.3211 25.6456C34.8416 27.4907 38.9256 26.686 39.0865 27.7186C39.6381 31.9352 33.0631 25.8259 30.857 26.7365C30.5621 26.8628 32.8464 28.1823 32.065 28.5755C29.4762 29.8525 21.4403 23.4189 30.0056 24.4234ZM818.464 11.3956C819.01 10.8597 820.911 10.8979 822.737 11.1941L822.286 11.1722C824.017 11.4878 825.248 12.1263 824.419 12.6623C824.33 12.7219 823.409 12.8278 822.219 12.8183L822.655 12.8394C820.226 12.7799 817.43 12.4665 818.464 11.3956ZM438.162 19.1108C439.897 17.9056 435.59 16.9585 434.875 17.8438C434.516 18.2871 437.401 19.6411 438.162 19.1108ZM408.395 16.197C406.267 16.4976 404.172 21.0483 406.819 20.2596C407.101 20.1738 408.669 16.8083 408.395 16.197ZM561.463 10.7786C559.435 9.14141 559.497 12.1138 561.017 12.1017C561.553 12.0969 561.528 10.8302 561.463 10.7786ZM463.832 14.8507C463.608 14.7729 461.113 15.2351 461.275 15.9039C462.262 16.2135 465.312 15.4022 463.832 14.8507ZM562.118 10.3657C561.022 10.8308 562.589 12.6506 564.014 11.4781C564.208 11.3491 564.399 11.1839 564.582 10.9766C564.417 11.0057 564.224 11.0038 564.017 10.9812C563.231 10.8783 562.222 10.3223 562.118 10.3657ZM780.869 5.8092C779.61 7.00054 776.064 6.56173 774.039 6.74143C773.836 5.15383 779.424 6.05918 780.869 5.8092ZM417.605 17.5892C415.62 18.8049 420.049 19.4956 419.566 18.0433C419.506 17.9668 417.682 17.5382 417.605 17.5892ZM635.341 10.8109C633.721 11.8303 639.073 12.854 637.538 11.2646C637.466 11.1996 635.433 10.7535 635.341 10.8109ZM657.195 10.4309C656.111 10.1678 651.234 10.4729 653.174 11.3116C653.498 11.4413 657.169 11.2996 657.195 10.4309ZM35.3432 23.4704C34.69 21.8548 38.363 22.1908 38.9287 22.4662C39.1177 22.5817 36.2368 25.5724 35.3432 23.4704ZM546.902 10.0501C545.587 10.1997 541.611 9.70835 540.788 10.5578C542.919 10.4017 547.336 11.7624 546.902 10.0501ZM426.918 17.0634C425.026 15.4118 422.007 15.7562 422.892 18.0165C426.245 17.6686 422.35 15.9759 426.918 17.0634ZM570.079 8.55382C569.047 8.40492 568.223 10.6102 568.34 10.716C569.458 11.7221 571.108 9.43011 570.079 8.55382ZM492.343 11.5441C492.237 10.5987 488.727 11.2155 489.233 11.8C489.405 11.993 492.438 12.3046 492.343 11.5441ZM735.585 5.08462C733.7 4.30669 739.289 3.19953 741.026 4.18307C741.885 5.60096 735.8 5.15515 735.585 5.08462ZM598.817 9.85455C599.036 8.45531 593.849 9.0668 595.842 10.3019C596.323 10.6096 598.765 10.3222 598.817 9.85455ZM642.201 7.63821C638.931 9.44629 653.059 10.0676 649.269 8.13087C649.04 7.99159 642.524 7.48173 642.201 7.63821ZM663.732 7.69348C663.241 7.53952 663.213 2.81716 665.103 4.5025C665.357 4.72049 664.36 6.04592 664.569 6.31649C664.804 6.474 668.372 6.83255 668.323 6.71058C668.443 6.57181 668.121 5.08442 668.236 4.90127C668.303 4.78944 668.88 5.08152 669.26 5.37544C670.94 5.43293 672.593 5.52269 673.679 5.41595C678.143 4.99377 678.296 3.75893 678.669 3.71618C679.636 3.63062 681.303 4.40265 683.124 4.28562C692.361 3.6778 704.342 2.29738 710.187 4.74406C704.978 3.86105 699.748 5.15485 693.985 5.74197C695.621 3.03187 685.382 8.15955 691.367 4.84597C689.505 5.3783 680.921 5.8688 669.538 7.39837C667.898 7.68878 664.236 7.89278 663.737 7.69313C663.735 7.69325 663.734 7.69336 663.732 7.69348ZM398.593 15.2621C400.068 13.5584 391.892 14.3934 391.577 16.2939C392.462 16.4912 398.305 15.4499 398.593 15.2621ZM430.822 9.75309C431.431 9.43282 431.801 6.25525 435.189 7.61679C435.192 7.61657 435.195 7.61636 435.198 7.61614C436.192 8.01262 435.156 8.8568 435.352 9.117C435.426 9.22459 438.535 10.569 436.069 11.0016C432.301 11.6576 435.539 8.69044 433.514 8.79927C433.269 8.81596 429.561 10.7731 429.806 11.1305C429.833 11.1726 430.961 10.7371 431.161 10.8795C431.923 11.4149 431.641 12.4198 431.746 12.4598C432.092 12.562 438.025 10.461 439.019 11.8479C439.349 12.3096 429.458 14.0966 429.045 13.8624C428.789 13.7238 428.711 10.992 428.44 10.7401C428.302 10.617 424.36 11.8827 423.825 11.6596C423.67 11.5958 423.549 11.5244 423.461 11.4648C424.118 12.2747 420.484 12.4177 420.542 11.458C420.584 11.0814 423.09 11.1594 423.184 11.2187C423.225 11.2441 423.261 11.2803 423.295 11.3048C422.718 10.3154 431.159 9.84065 429.235 8.42271C431.62 7.42596 429.041 10.6889 430.822 9.75309ZM442.412 7.21478C442.186 7.52117 441.959 7.8275 441.731 8.13377C445.921 7.09595 450.939 8.04744 455.754 7.56016C456.971 7.43841 455.387 5.83141 457.036 6.14816C458.344 6.40276 459.931 7.87355 459.278 8.30762C459.117 8.41666 456.408 7.6284 455.11 7.86319C451.268 8.55832 452.389 9.95926 452.166 10.0226C451.919 10.0895 449.358 9.26038 448.022 9.42331C444.65 9.83712 443.165 10.8921 438.415 10.0417C441.023 8.84696 439.378 6.81197 442.412 7.21478ZM619.074 6.35833C619.118 5.92894 619.58 5.87627 619.754 5.92479C619.836 5.94967 619.83 5.99834 619.524 6.05031C619.193 6.10652 618.509 6.15156 616.928 6.28589C617.083 6.2743 617.223 6.258 617.343 6.23514C617.32 6.41037 617.18 6.53595 616.958 6.62599C619.258 6.60339 619.807 6.59235 619.801 6.50142C619.789 6.4205 619.332 6.30735 619.074 6.35833ZM168.982 11.7166C168.045 13.2994 175.68 13.435 173.627 12.2068C173.171 11.931 169.982 11.6873 168.982 11.7166ZM201.387 11.9861C202.31 11.5428 198.548 10.476 198.584 11.6798C198.585 12.0659 201.286 12.0434 201.387 11.9861ZM504.227 3.84035C504.413 3.7847 507.02 4.04161 507.096 4.11844C508.897 5.70814 500.261 5.05464 504.227 3.84035ZM240.064 9.60956C236.628 10.6154 246.958 11.1036 243.807 9.78835C243.65 9.72258 240.243 9.55892 240.064 9.60956ZM254.271 9.4567C253.486 9.49841 249.882 8.94546 249.839 9.42078C249.754 10.1843 253.866 10.7615 254.271 9.4567ZM570.855 2.68746C570.487 0.927458 575.246 2.32964 576.905 2.1448C577.259 3.90449 572.523 2.48706 570.855 2.68746ZM542.832 0.686932C554.61 0.366456 556.27 1.06976 556.005 1.6212C555.15 2.19525 551.882 2.52951 541.293 1.51096C541.269 0.386916 541.233 0.73969 542.832 0.686932ZM566.497 1.54861C566.066 2.20089 565.106 2.34998 564.061 2.34208C563.476 2.33776 562.885 2.25176 562.374 2.20724C562.498 1.79515 563.244 1.69048 564.065 1.65022C564.996 1.61623 565.975 1.63796 566.497 1.54861ZM159.346 9.77048C160.701 8.25467 166.949 9.71068 165.872 10.3499C165.658 10.4726 158.895 10.5672 159.346 9.77048ZM505.808 2.28431C505.323 0.594488 511.075 1.09512 511.474 1.45919C513.271 2.92166 506.322 1.89011 505.808 2.28431ZM599.281 1.93633C600.388 0.640658 603.323 1.44003 605.2 1.5331C604.322 2.64014 600.91 2.01969 599.281 1.93633ZM585.379 0.442529C585.506 0.393966 588.203 0.590283 588.326 0.656094C590.51 2.0221 582.859 1.47393 585.379 0.442529ZM26.7306 11.6363C26.7972 11.5927 28.7391 11.6561 28.7878 11.7056C30.498 12.9685 24.7984 12.7701 26.7306 11.6363Z" fill="#F6D40E"/>
</svg>